<mxfile host="app.diagrams.net" modified="2023-12-29T07:02:35.616Z" agent="Mozilla/5.0 (Macintosh; Intel Mac OS X 10_15_7) AppleWebKit/605.1.15 (KHTML, like Gecko) Version/17.2.1 Safari/605.1.15" etag="hgMzu6HzO1usjDTAxLJY" version="22.1.15" type="github">
  <diagram id="R2lEEEUBdFMjLlhIrx00" name="Page-1">
    <mxGraphModel dx="3233" dy="2405" grid="1" gridSize="10" guides="1" tooltips="1" connect="1" arrows="1" fold="1" page="1" pageScale="1" pageWidth="850" pageHeight="1100" math="0" shadow="0" extFonts="Permanent Marker^https://fonts.googleapis.com/css?family=Permanent+Marker">
      <root>
        <mxCell id="0" />
        <mxCell id="1" parent="0" />
        <mxCell id="C-vyLk0tnHw3VtMMgP7b-13" value="Messaging Service" style="shape=table;startSize=30;container=1;collapsible=1;childLayout=tableLayout;fixedRows=1;rowLines=0;fontStyle=1;align=center;resizeLast=1;" parent="1" vertex="1">
          <mxGeometry x="-470" y="420" width="250" height="130" as="geometry" />
        </mxCell>
        <mxCell id="C-vyLk0tnHw3VtMMgP7b-14" value="" style="shape=partialRectangle;collapsible=0;dropTarget=0;pointerEvents=0;fillColor=none;points=[[0,0.5],[1,0.5]];portConstraint=eastwest;top=0;left=0;right=0;bottom=1;" parent="C-vyLk0tnHw3VtMMgP7b-13" vertex="1">
          <mxGeometry y="30" width="250" height="30" as="geometry" />
        </mxCell>
        <mxCell id="C-vyLk0tnHw3VtMMgP7b-15" value="" style="shape=partialRectangle;overflow=hidden;connectable=0;fillColor=none;top=0;left=0;bottom=0;right=0;fontStyle=1;" parent="C-vyLk0tnHw3VtMMgP7b-14" vertex="1">
          <mxGeometry width="30" height="30" as="geometry">
            <mxRectangle width="30" height="30" as="alternateBounds" />
          </mxGeometry>
        </mxCell>
        <mxCell id="C-vyLk0tnHw3VtMMgP7b-16" value="" style="shape=partialRectangle;overflow=hidden;connectable=0;fillColor=none;top=0;left=0;bottom=0;right=0;align=left;spacingLeft=6;fontStyle=5;" parent="C-vyLk0tnHw3VtMMgP7b-14" vertex="1">
          <mxGeometry x="30" width="220" height="30" as="geometry">
            <mxRectangle width="220" height="30" as="alternateBounds" />
          </mxGeometry>
        </mxCell>
        <mxCell id="C-vyLk0tnHw3VtMMgP7b-17" value="" style="shape=partialRectangle;collapsible=0;dropTarget=0;pointerEvents=0;fillColor=none;points=[[0,0.5],[1,0.5]];portConstraint=eastwest;top=0;left=0;right=0;bottom=0;" parent="C-vyLk0tnHw3VtMMgP7b-13" vertex="1">
          <mxGeometry y="60" width="250" height="30" as="geometry" />
        </mxCell>
        <mxCell id="C-vyLk0tnHw3VtMMgP7b-18" value="" style="shape=partialRectangle;overflow=hidden;connectable=0;fillColor=none;top=0;left=0;bottom=0;right=0;" parent="C-vyLk0tnHw3VtMMgP7b-17" vertex="1">
          <mxGeometry width="30" height="30" as="geometry">
            <mxRectangle width="30" height="30" as="alternateBounds" />
          </mxGeometry>
        </mxCell>
        <mxCell id="C-vyLk0tnHw3VtMMgP7b-19" value="" style="shape=partialRectangle;overflow=hidden;connectable=0;fillColor=none;top=0;left=0;bottom=0;right=0;align=left;spacingLeft=6;" parent="C-vyLk0tnHw3VtMMgP7b-17" vertex="1">
          <mxGeometry x="30" width="220" height="30" as="geometry">
            <mxRectangle width="220" height="30" as="alternateBounds" />
          </mxGeometry>
        </mxCell>
        <mxCell id="C-vyLk0tnHw3VtMMgP7b-20" value="" style="shape=partialRectangle;collapsible=0;dropTarget=0;pointerEvents=0;fillColor=none;points=[[0,0.5],[1,0.5]];portConstraint=eastwest;top=0;left=0;right=0;bottom=0;" parent="C-vyLk0tnHw3VtMMgP7b-13" vertex="1">
          <mxGeometry y="90" width="250" height="30" as="geometry" />
        </mxCell>
        <mxCell id="C-vyLk0tnHw3VtMMgP7b-21" value="" style="shape=partialRectangle;overflow=hidden;connectable=0;fillColor=none;top=0;left=0;bottom=0;right=0;" parent="C-vyLk0tnHw3VtMMgP7b-20" vertex="1">
          <mxGeometry width="30" height="30" as="geometry">
            <mxRectangle width="30" height="30" as="alternateBounds" />
          </mxGeometry>
        </mxCell>
        <mxCell id="C-vyLk0tnHw3VtMMgP7b-22" value="" style="shape=partialRectangle;overflow=hidden;connectable=0;fillColor=none;top=0;left=0;bottom=0;right=0;align=left;spacingLeft=6;" parent="C-vyLk0tnHw3VtMMgP7b-20" vertex="1">
          <mxGeometry x="30" width="220" height="30" as="geometry">
            <mxRectangle width="220" height="30" as="alternateBounds" />
          </mxGeometry>
        </mxCell>
        <mxCell id="C-vyLk0tnHw3VtMMgP7b-23" value="Functional Requirements" style="shape=table;startSize=30;container=1;collapsible=1;childLayout=tableLayout;fixedRows=1;rowLines=0;fontStyle=1;align=center;resizeLast=1;" parent="1" vertex="1">
          <mxGeometry x="-220" y="-90" width="210" height="280" as="geometry" />
        </mxCell>
        <mxCell id="C-vyLk0tnHw3VtMMgP7b-27" value="" style="shape=partialRectangle;collapsible=0;dropTarget=0;pointerEvents=0;fillColor=none;points=[[0,0.5],[1,0.5]];portConstraint=eastwest;top=0;left=0;right=0;bottom=0;" parent="C-vyLk0tnHw3VtMMgP7b-23" vertex="1">
          <mxGeometry y="30" width="210" height="50" as="geometry" />
        </mxCell>
        <mxCell id="C-vyLk0tnHw3VtMMgP7b-28" value="" style="shape=partialRectangle;overflow=hidden;connectable=0;fillColor=none;top=0;left=0;bottom=0;right=0;" parent="C-vyLk0tnHw3VtMMgP7b-27" vertex="1">
          <mxGeometry width="20" height="50" as="geometry">
            <mxRectangle width="20" height="50" as="alternateBounds" />
          </mxGeometry>
        </mxCell>
        <mxCell id="C-vyLk0tnHw3VtMMgP7b-29" value="One-One Chat" style="shape=partialRectangle;overflow=hidden;connectable=0;fillColor=none;top=0;left=0;bottom=0;right=0;align=left;spacingLeft=6;" parent="C-vyLk0tnHw3VtMMgP7b-27" vertex="1">
          <mxGeometry x="20" width="190" height="50" as="geometry">
            <mxRectangle width="190" height="50" as="alternateBounds" />
          </mxGeometry>
        </mxCell>
        <mxCell id="UuTfoSx2M2-8d4bxBSYn-1" value="" style="shape=partialRectangle;collapsible=0;dropTarget=0;pointerEvents=0;fillColor=none;points=[[0,0.5],[1,0.5]];portConstraint=eastwest;top=0;left=0;right=0;bottom=0;fontStyle=1" vertex="1" parent="1">
          <mxGeometry x="-220" y="-10" width="250" height="50" as="geometry" />
        </mxCell>
        <mxCell id="UuTfoSx2M2-8d4bxBSYn-2" value="" style="shape=partialRectangle;overflow=hidden;connectable=0;fillColor=none;top=0;left=0;bottom=0;right=0;" vertex="1" parent="UuTfoSx2M2-8d4bxBSYn-1">
          <mxGeometry x="80" y="-130" width="30" height="50" as="geometry">
            <mxRectangle width="30" height="50" as="alternateBounds" />
          </mxGeometry>
        </mxCell>
        <mxCell id="UuTfoSx2M2-8d4bxBSYn-3" value="Group Chat" style="shape=partialRectangle;overflow=hidden;connectable=0;fillColor=none;top=0;left=0;bottom=0;right=0;align=left;spacingLeft=6;" vertex="1" parent="UuTfoSx2M2-8d4bxBSYn-1">
          <mxGeometry x="30" width="220" height="50" as="geometry">
            <mxRectangle width="220" height="50" as="alternateBounds" />
          </mxGeometry>
        </mxCell>
        <mxCell id="UuTfoSx2M2-8d4bxBSYn-4" value="" style="shape=partialRectangle;collapsible=0;dropTarget=0;pointerEvents=0;fillColor=none;points=[[0,0.5],[1,0.5]];portConstraint=eastwest;top=0;left=0;right=0;bottom=0;fontStyle=1" vertex="1" parent="1">
          <mxGeometry x="-220" y="40" width="250" height="50" as="geometry" />
        </mxCell>
        <mxCell id="UuTfoSx2M2-8d4bxBSYn-5" value="" style="shape=partialRectangle;overflow=hidden;connectable=0;fillColor=none;top=0;left=0;bottom=0;right=0;" vertex="1" parent="UuTfoSx2M2-8d4bxBSYn-4">
          <mxGeometry x="80" y="-130" width="30" height="50" as="geometry">
            <mxRectangle width="30" height="50" as="alternateBounds" />
          </mxGeometry>
        </mxCell>
        <mxCell id="UuTfoSx2M2-8d4bxBSYn-6" value="Read Receipt" style="shape=partialRectangle;overflow=hidden;connectable=0;fillColor=none;top=0;left=0;bottom=0;right=0;align=left;spacingLeft=6;" vertex="1" parent="UuTfoSx2M2-8d4bxBSYn-4">
          <mxGeometry x="30" width="220" height="50" as="geometry">
            <mxRectangle width="220" height="50" as="alternateBounds" />
          </mxGeometry>
        </mxCell>
        <mxCell id="UuTfoSx2M2-8d4bxBSYn-7" value="" style="shape=partialRectangle;collapsible=0;dropTarget=0;pointerEvents=0;fillColor=none;points=[[0,0.5],[1,0.5]];portConstraint=eastwest;top=0;left=0;right=0;bottom=0;fontStyle=1" vertex="1" parent="1">
          <mxGeometry x="-220" y="90" width="250" height="50" as="geometry" />
        </mxCell>
        <mxCell id="UuTfoSx2M2-8d4bxBSYn-8" value="" style="shape=partialRectangle;overflow=hidden;connectable=0;fillColor=none;top=0;left=0;bottom=0;right=0;" vertex="1" parent="UuTfoSx2M2-8d4bxBSYn-7">
          <mxGeometry x="80" y="-130" width="30" height="50" as="geometry">
            <mxRectangle width="30" height="50" as="alternateBounds" />
          </mxGeometry>
        </mxCell>
        <mxCell id="UuTfoSx2M2-8d4bxBSYn-9" value="Online status" style="shape=partialRectangle;overflow=hidden;connectable=0;fillColor=none;top=0;left=0;bottom=0;right=0;align=left;spacingLeft=6;" vertex="1" parent="UuTfoSx2M2-8d4bxBSYn-7">
          <mxGeometry x="30" width="220" height="50" as="geometry">
            <mxRectangle width="220" height="50" as="alternateBounds" />
          </mxGeometry>
        </mxCell>
        <mxCell id="UuTfoSx2M2-8d4bxBSYn-10" value="" style="shape=partialRectangle;collapsible=0;dropTarget=0;pointerEvents=0;fillColor=none;points=[[0,0.5],[1,0.5]];portConstraint=eastwest;top=0;left=0;right=0;bottom=0;fontStyle=1" vertex="1" parent="1">
          <mxGeometry x="-220" y="130" width="250" height="50" as="geometry" />
        </mxCell>
        <mxCell id="UuTfoSx2M2-8d4bxBSYn-11" value="" style="shape=partialRectangle;overflow=hidden;connectable=0;fillColor=none;top=0;left=0;bottom=0;right=0;" vertex="1" parent="UuTfoSx2M2-8d4bxBSYn-10">
          <mxGeometry x="80" y="-130" width="30" height="50" as="geometry">
            <mxRectangle width="30" height="50" as="alternateBounds" />
          </mxGeometry>
        </mxCell>
        <mxCell id="UuTfoSx2M2-8d4bxBSYn-12" value="Notification" style="shape=partialRectangle;overflow=hidden;connectable=0;fillColor=none;top=0;left=0;bottom=0;right=0;align=left;spacingLeft=6;" vertex="1" parent="UuTfoSx2M2-8d4bxBSYn-10">
          <mxGeometry x="30" width="220" height="50" as="geometry">
            <mxRectangle width="220" height="50" as="alternateBounds" />
          </mxGeometry>
        </mxCell>
        <mxCell id="UuTfoSx2M2-8d4bxBSYn-13" value="System Requirements" style="shape=table;startSize=30;container=1;collapsible=1;childLayout=tableLayout;fixedRows=1;rowLines=0;fontStyle=1;align=center;resizeLast=1;" vertex="1" parent="1">
          <mxGeometry x="140" y="-90" width="210" height="320" as="geometry" />
        </mxCell>
        <mxCell id="UuTfoSx2M2-8d4bxBSYn-14" value="" style="shape=partialRectangle;collapsible=0;dropTarget=0;pointerEvents=0;fillColor=none;points=[[0,0.5],[1,0.5]];portConstraint=eastwest;top=0;left=0;right=0;bottom=0;" vertex="1" parent="UuTfoSx2M2-8d4bxBSYn-13">
          <mxGeometry y="30" width="210" height="50" as="geometry" />
        </mxCell>
        <mxCell id="UuTfoSx2M2-8d4bxBSYn-15" value="" style="shape=partialRectangle;overflow=hidden;connectable=0;fillColor=none;top=0;left=0;bottom=0;right=0;" vertex="1" parent="UuTfoSx2M2-8d4bxBSYn-14">
          <mxGeometry width="30" height="50" as="geometry">
            <mxRectangle width="30" height="50" as="alternateBounds" />
          </mxGeometry>
        </mxCell>
        <mxCell id="UuTfoSx2M2-8d4bxBSYn-16" value="1. Low Latecy" style="shape=partialRectangle;overflow=hidden;connectable=0;fillColor=none;top=0;left=0;bottom=0;right=0;align=left;spacingLeft=6;" vertex="1" parent="UuTfoSx2M2-8d4bxBSYn-14">
          <mxGeometry x="30" width="180" height="50" as="geometry">
            <mxRectangle width="180" height="50" as="alternateBounds" />
          </mxGeometry>
        </mxCell>
        <mxCell id="UuTfoSx2M2-8d4bxBSYn-17" value="2.High Reliability" style="shape=partialRectangle;overflow=hidden;connectable=0;fillColor=none;top=0;left=0;bottom=0;right=0;align=left;spacingLeft=6;fontStyle=1" vertex="1" parent="1">
          <mxGeometry x="170" y="-20" width="180" height="50" as="geometry">
            <mxRectangle width="180" height="50" as="alternateBounds" />
          </mxGeometry>
        </mxCell>
        <mxCell id="UuTfoSx2M2-8d4bxBSYn-18" value="3.High Availability" style="shape=partialRectangle;overflow=hidden;connectable=0;fillColor=none;top=0;left=0;bottom=0;right=0;align=left;spacingLeft=6;fontStyle=1" vertex="1" parent="1">
          <mxGeometry x="170" y="20" width="180" height="50" as="geometry">
            <mxRectangle width="180" height="50" as="alternateBounds" />
          </mxGeometry>
        </mxCell>
        <mxCell id="UuTfoSx2M2-8d4bxBSYn-19" value="4.Mobile &amp; Browse,Desktop" style="shape=partialRectangle;overflow=hidden;connectable=0;fillColor=none;top=0;left=0;bottom=0;right=0;align=left;spacingLeft=6;fontStyle=1" vertex="1" parent="1">
          <mxGeometry x="170" y="60" width="180" height="50" as="geometry">
            <mxRectangle width="180" height="50" as="alternateBounds" />
          </mxGeometry>
        </mxCell>
        <mxCell id="UuTfoSx2M2-8d4bxBSYn-20" value="5.Chat History" style="shape=partialRectangle;overflow=hidden;connectable=0;fillColor=none;top=0;left=0;bottom=0;right=0;align=left;spacingLeft=6;fontStyle=1" vertex="1" parent="1">
          <mxGeometry x="170" y="100" width="180" height="50" as="geometry">
            <mxRectangle width="180" height="50" as="alternateBounds" />
          </mxGeometry>
        </mxCell>
        <mxCell id="UuTfoSx2M2-8d4bxBSYn-21" value="6. High BLOB Store" style="shape=partialRectangle;overflow=hidden;connectable=0;fillColor=none;top=0;left=0;bottom=0;right=0;align=left;spacingLeft=6;fontStyle=1" vertex="1" parent="1">
          <mxGeometry x="170" y="140" width="180" height="50" as="geometry">
            <mxRectangle width="180" height="50" as="alternateBounds" />
          </mxGeometry>
        </mxCell>
        <mxCell id="UuTfoSx2M2-8d4bxBSYn-22" value="7.Nakama" style="shape=partialRectangle;overflow=hidden;connectable=0;fillColor=none;top=0;left=0;bottom=0;right=0;align=left;spacingLeft=6;fontStyle=1" vertex="1" parent="1">
          <mxGeometry x="170" y="180" width="180" height="50" as="geometry">
            <mxRectangle width="180" height="50" as="alternateBounds" />
          </mxGeometry>
        </mxCell>
        <mxCell id="UuTfoSx2M2-8d4bxBSYn-23" value="Group Service" style="shape=table;startSize=30;container=1;collapsible=1;childLayout=tableLayout;fixedRows=1;rowLines=0;fontStyle=1;align=center;resizeLast=1;" vertex="1" parent="1">
          <mxGeometry x="320" y="420" width="250" height="130" as="geometry" />
        </mxCell>
        <mxCell id="UuTfoSx2M2-8d4bxBSYn-24" value="" style="shape=partialRectangle;collapsible=0;dropTarget=0;pointerEvents=0;fillColor=none;points=[[0,0.5],[1,0.5]];portConstraint=eastwest;top=0;left=0;right=0;bottom=1;" vertex="1" parent="UuTfoSx2M2-8d4bxBSYn-23">
          <mxGeometry y="30" width="250" height="30" as="geometry" />
        </mxCell>
        <mxCell id="UuTfoSx2M2-8d4bxBSYn-25" value="" style="shape=partialRectangle;overflow=hidden;connectable=0;fillColor=none;top=0;left=0;bottom=0;right=0;fontStyle=1;" vertex="1" parent="UuTfoSx2M2-8d4bxBSYn-24">
          <mxGeometry width="30" height="30" as="geometry">
            <mxRectangle width="30" height="30" as="alternateBounds" />
          </mxGeometry>
        </mxCell>
        <mxCell id="UuTfoSx2M2-8d4bxBSYn-26" value="" style="shape=partialRectangle;overflow=hidden;connectable=0;fillColor=none;top=0;left=0;bottom=0;right=0;align=left;spacingLeft=6;fontStyle=5;" vertex="1" parent="UuTfoSx2M2-8d4bxBSYn-24">
          <mxGeometry x="30" width="220" height="30" as="geometry">
            <mxRectangle width="220" height="30" as="alternateBounds" />
          </mxGeometry>
        </mxCell>
        <mxCell id="UuTfoSx2M2-8d4bxBSYn-27" value="" style="shape=partialRectangle;collapsible=0;dropTarget=0;pointerEvents=0;fillColor=none;points=[[0,0.5],[1,0.5]];portConstraint=eastwest;top=0;left=0;right=0;bottom=0;" vertex="1" parent="UuTfoSx2M2-8d4bxBSYn-23">
          <mxGeometry y="60" width="250" height="30" as="geometry" />
        </mxCell>
        <mxCell id="UuTfoSx2M2-8d4bxBSYn-28" value="" style="shape=partialRectangle;overflow=hidden;connectable=0;fillColor=none;top=0;left=0;bottom=0;right=0;" vertex="1" parent="UuTfoSx2M2-8d4bxBSYn-27">
          <mxGeometry width="30" height="30" as="geometry">
            <mxRectangle width="30" height="30" as="alternateBounds" />
          </mxGeometry>
        </mxCell>
        <mxCell id="UuTfoSx2M2-8d4bxBSYn-29" value="" style="shape=partialRectangle;overflow=hidden;connectable=0;fillColor=none;top=0;left=0;bottom=0;right=0;align=left;spacingLeft=6;" vertex="1" parent="UuTfoSx2M2-8d4bxBSYn-27">
          <mxGeometry x="30" width="220" height="30" as="geometry">
            <mxRectangle width="220" height="30" as="alternateBounds" />
          </mxGeometry>
        </mxCell>
        <mxCell id="UuTfoSx2M2-8d4bxBSYn-30" value="" style="shape=partialRectangle;collapsible=0;dropTarget=0;pointerEvents=0;fillColor=none;points=[[0,0.5],[1,0.5]];portConstraint=eastwest;top=0;left=0;right=0;bottom=0;" vertex="1" parent="UuTfoSx2M2-8d4bxBSYn-23">
          <mxGeometry y="90" width="250" height="30" as="geometry" />
        </mxCell>
        <mxCell id="UuTfoSx2M2-8d4bxBSYn-31" value="" style="shape=partialRectangle;overflow=hidden;connectable=0;fillColor=none;top=0;left=0;bottom=0;right=0;" vertex="1" parent="UuTfoSx2M2-8d4bxBSYn-30">
          <mxGeometry width="30" height="30" as="geometry">
            <mxRectangle width="30" height="30" as="alternateBounds" />
          </mxGeometry>
        </mxCell>
        <mxCell id="UuTfoSx2M2-8d4bxBSYn-32" value="" style="shape=partialRectangle;overflow=hidden;connectable=0;fillColor=none;top=0;left=0;bottom=0;right=0;align=left;spacingLeft=6;" vertex="1" parent="UuTfoSx2M2-8d4bxBSYn-30">
          <mxGeometry x="30" width="220" height="30" as="geometry">
            <mxRectangle width="220" height="30" as="alternateBounds" />
          </mxGeometry>
        </mxCell>
        <mxCell id="UuTfoSx2M2-8d4bxBSYn-33" value="Session Service" style="shape=table;startSize=30;container=1;collapsible=1;childLayout=tableLayout;fixedRows=1;rowLines=0;fontStyle=1;align=center;resizeLast=1;" vertex="1" parent="1">
          <mxGeometry x="-65" y="420" width="250" height="130" as="geometry" />
        </mxCell>
        <mxCell id="UuTfoSx2M2-8d4bxBSYn-34" value="" style="shape=partialRectangle;collapsible=0;dropTarget=0;pointerEvents=0;fillColor=none;points=[[0,0.5],[1,0.5]];portConstraint=eastwest;top=0;left=0;right=0;bottom=1;" vertex="1" parent="UuTfoSx2M2-8d4bxBSYn-33">
          <mxGeometry y="30" width="250" height="30" as="geometry" />
        </mxCell>
        <mxCell id="UuTfoSx2M2-8d4bxBSYn-35" value="" style="shape=partialRectangle;overflow=hidden;connectable=0;fillColor=none;top=0;left=0;bottom=0;right=0;fontStyle=1;" vertex="1" parent="UuTfoSx2M2-8d4bxBSYn-34">
          <mxGeometry width="30" height="30" as="geometry">
            <mxRectangle width="30" height="30" as="alternateBounds" />
          </mxGeometry>
        </mxCell>
        <mxCell id="UuTfoSx2M2-8d4bxBSYn-36" value="" style="shape=partialRectangle;overflow=hidden;connectable=0;fillColor=none;top=0;left=0;bottom=0;right=0;align=left;spacingLeft=6;fontStyle=5;" vertex="1" parent="UuTfoSx2M2-8d4bxBSYn-34">
          <mxGeometry x="30" width="220" height="30" as="geometry">
            <mxRectangle width="220" height="30" as="alternateBounds" />
          </mxGeometry>
        </mxCell>
        <mxCell id="UuTfoSx2M2-8d4bxBSYn-37" value="" style="shape=partialRectangle;collapsible=0;dropTarget=0;pointerEvents=0;fillColor=none;points=[[0,0.5],[1,0.5]];portConstraint=eastwest;top=0;left=0;right=0;bottom=0;" vertex="1" parent="UuTfoSx2M2-8d4bxBSYn-33">
          <mxGeometry y="60" width="250" height="30" as="geometry" />
        </mxCell>
        <mxCell id="UuTfoSx2M2-8d4bxBSYn-38" value="" style="shape=partialRectangle;overflow=hidden;connectable=0;fillColor=none;top=0;left=0;bottom=0;right=0;" vertex="1" parent="UuTfoSx2M2-8d4bxBSYn-37">
          <mxGeometry width="30" height="30" as="geometry">
            <mxRectangle width="30" height="30" as="alternateBounds" />
          </mxGeometry>
        </mxCell>
        <mxCell id="UuTfoSx2M2-8d4bxBSYn-39" value="" style="shape=partialRectangle;overflow=hidden;connectable=0;fillColor=none;top=0;left=0;bottom=0;right=0;align=left;spacingLeft=6;" vertex="1" parent="UuTfoSx2M2-8d4bxBSYn-37">
          <mxGeometry x="30" width="220" height="30" as="geometry">
            <mxRectangle width="220" height="30" as="alternateBounds" />
          </mxGeometry>
        </mxCell>
        <mxCell id="UuTfoSx2M2-8d4bxBSYn-40" value="" style="shape=partialRectangle;collapsible=0;dropTarget=0;pointerEvents=0;fillColor=none;points=[[0,0.5],[1,0.5]];portConstraint=eastwest;top=0;left=0;right=0;bottom=0;" vertex="1" parent="UuTfoSx2M2-8d4bxBSYn-33">
          <mxGeometry y="90" width="250" height="30" as="geometry" />
        </mxCell>
        <mxCell id="UuTfoSx2M2-8d4bxBSYn-41" value="" style="shape=partialRectangle;overflow=hidden;connectable=0;fillColor=none;top=0;left=0;bottom=0;right=0;" vertex="1" parent="UuTfoSx2M2-8d4bxBSYn-40">
          <mxGeometry width="30" height="30" as="geometry">
            <mxRectangle width="30" height="30" as="alternateBounds" />
          </mxGeometry>
        </mxCell>
        <mxCell id="UuTfoSx2M2-8d4bxBSYn-42" value="" style="shape=partialRectangle;overflow=hidden;connectable=0;fillColor=none;top=0;left=0;bottom=0;right=0;align=left;spacingLeft=6;" vertex="1" parent="UuTfoSx2M2-8d4bxBSYn-40">
          <mxGeometry x="30" width="220" height="30" as="geometry">
            <mxRectangle width="220" height="30" as="alternateBounds" />
          </mxGeometry>
        </mxCell>
        <mxCell id="UuTfoSx2M2-8d4bxBSYn-43" value="&lt;b&gt;&lt;font style=&quot;font-size: 20px;&quot;&gt;Highlevel&lt;/font&gt;&lt;/b&gt;" style="whiteSpace=wrap;html=1;" vertex="1" parent="1">
          <mxGeometry y="330" width="120" height="60" as="geometry" />
        </mxCell>
        <mxCell id="UuTfoSx2M2-8d4bxBSYn-44" value="Messaging Service" style="rounded=0;whiteSpace=wrap;html=1;" vertex="1" parent="1">
          <mxGeometry x="-100" y="812" width="135" height="60" as="geometry" />
        </mxCell>
        <mxCell id="UuTfoSx2M2-8d4bxBSYn-45" value="User A" style="shape=umlActor;verticalLabelPosition=bottom;verticalAlign=top;html=1;outlineConnect=0;" vertex="1" parent="1">
          <mxGeometry x="-320" y="722" width="30" height="60" as="geometry" />
        </mxCell>
        <mxCell id="UuTfoSx2M2-8d4bxBSYn-46" value="User B" style="shape=umlActor;verticalLabelPosition=bottom;verticalAlign=top;html=1;outlineConnect=0;" vertex="1" parent="1">
          <mxGeometry x="-320" y="912" width="30" height="60" as="geometry" />
        </mxCell>
        <mxCell id="UuTfoSx2M2-8d4bxBSYn-48" value="" style="endArrow=classic;startArrow=classic;html=1;rounded=0;entryX=0.604;entryY=-0.017;entryDx=0;entryDy=0;entryPerimeter=0;" edge="1" parent="1" source="UuTfoSx2M2-8d4bxBSYn-45" target="UuTfoSx2M2-8d4bxBSYn-44">
          <mxGeometry width="50" height="50" relative="1" as="geometry">
            <mxPoint x="630" y="842" as="sourcePoint" />
            <mxPoint x="680" y="792" as="targetPoint" />
            <Array as="points">
              <mxPoint x="-18" y="752" />
            </Array>
          </mxGeometry>
        </mxCell>
        <mxCell id="UuTfoSx2M2-8d4bxBSYn-49" value="SendMessage" style="text;html=1;align=center;verticalAlign=middle;resizable=0;points=[];autosize=1;strokeColor=none;fillColor=none;" vertex="1" parent="1">
          <mxGeometry x="-240" y="730" width="100" height="30" as="geometry" />
        </mxCell>
        <mxCell id="UuTfoSx2M2-8d4bxBSYn-50" value="" style="endArrow=classic;startArrow=classic;html=1;rounded=0;exitX=1;exitY=0.5;exitDx=0;exitDy=0;" edge="1" parent="1" source="UuTfoSx2M2-8d4bxBSYn-44" target="UuTfoSx2M2-8d4bxBSYn-51">
          <mxGeometry width="50" height="50" relative="1" as="geometry">
            <mxPoint x="630" y="812" as="sourcePoint" />
            <mxPoint x="680" y="762" as="targetPoint" />
          </mxGeometry>
        </mxCell>
        <mxCell id="UuTfoSx2M2-8d4bxBSYn-53" style="edgeStyle=orthogonalEdgeStyle;rounded=0;orthogonalLoop=1;jettySize=auto;html=1;exitX=0.5;exitY=1;exitDx=0;exitDy=0;" edge="1" parent="1" source="UuTfoSx2M2-8d4bxBSYn-51" target="UuTfoSx2M2-8d4bxBSYn-52">
          <mxGeometry relative="1" as="geometry" />
        </mxCell>
        <mxCell id="UuTfoSx2M2-8d4bxBSYn-70" value="User-Server" style="edgeLabel;html=1;align=center;verticalAlign=middle;resizable=0;points=[];" vertex="1" connectable="0" parent="UuTfoSx2M2-8d4bxBSYn-53">
          <mxGeometry x="-0.0769" y="-1" relative="1" as="geometry">
            <mxPoint as="offset" />
          </mxGeometry>
        </mxCell>
        <mxCell id="UuTfoSx2M2-8d4bxBSYn-51" value="Session Service" style="rounded=0;whiteSpace=wrap;html=1;" vertex="1" parent="1">
          <mxGeometry x="230" y="812" width="120" height="60" as="geometry" />
        </mxCell>
        <mxCell id="UuTfoSx2M2-8d4bxBSYn-52" value="Database" style="shape=cylinder3;whiteSpace=wrap;html=1;boundedLbl=1;backgroundOutline=1;size=15;" vertex="1" parent="1">
          <mxGeometry x="260" y="1002" width="60" height="80" as="geometry" />
        </mxCell>
        <mxCell id="UuTfoSx2M2-8d4bxBSYn-54" value="" style="endArrow=classic;startArrow=classic;html=1;rounded=0;entryX=0.619;entryY=1.067;entryDx=0;entryDy=0;entryPerimeter=0;" edge="1" parent="1" source="UuTfoSx2M2-8d4bxBSYn-46" target="UuTfoSx2M2-8d4bxBSYn-44">
          <mxGeometry width="50" height="50" relative="1" as="geometry">
            <mxPoint x="630" y="812" as="sourcePoint" />
            <mxPoint x="680" y="762" as="targetPoint" />
            <Array as="points">
              <mxPoint x="-16" y="942" />
            </Array>
          </mxGeometry>
        </mxCell>
        <mxCell id="UuTfoSx2M2-8d4bxBSYn-55" value="ReceiveMessage" style="text;html=1;align=center;verticalAlign=middle;resizable=0;points=[];autosize=1;strokeColor=none;fillColor=none;" vertex="1" parent="1">
          <mxGeometry x="-260" y="920" width="120" height="30" as="geometry" />
        </mxCell>
        <mxCell id="UuTfoSx2M2-8d4bxBSYn-56" value="" style="endArrow=none;html=1;rounded=0;" edge="1" parent="1">
          <mxGeometry width="50" height="50" relative="1" as="geometry">
            <mxPoint x="-260" y="692" as="sourcePoint" />
            <mxPoint x="-260" y="1002" as="targetPoint" />
          </mxGeometry>
        </mxCell>
        <mxCell id="UuTfoSx2M2-8d4bxBSYn-57" value="" style="endArrow=none;html=1;rounded=0;" edge="1" parent="1">
          <mxGeometry width="50" height="50" relative="1" as="geometry">
            <mxPoint x="-130" y="692" as="sourcePoint" />
            <mxPoint x="-130" y="1002" as="targetPoint" />
          </mxGeometry>
        </mxCell>
        <mxCell id="UuTfoSx2M2-8d4bxBSYn-58" value="" style="endArrow=none;html=1;rounded=0;" edge="1" parent="1">
          <mxGeometry width="50" height="50" relative="1" as="geometry">
            <mxPoint x="-260" y="1002" as="sourcePoint" />
            <mxPoint x="-130" y="1002" as="targetPoint" />
          </mxGeometry>
        </mxCell>
        <mxCell id="UuTfoSx2M2-8d4bxBSYn-59" value="" style="endArrow=none;html=1;rounded=0;" edge="1" parent="1">
          <mxGeometry width="50" height="50" relative="1" as="geometry">
            <mxPoint x="-260" y="692" as="sourcePoint" />
            <mxPoint x="-130" y="692" as="targetPoint" />
          </mxGeometry>
        </mxCell>
        <mxCell id="UuTfoSx2M2-8d4bxBSYn-60" value="Nakama" style="text;html=1;align=center;verticalAlign=middle;resizable=0;points=[];autosize=1;strokeColor=none;fillColor=none;" vertex="1" parent="1">
          <mxGeometry x="-235" y="660" width="70" height="30" as="geometry" />
        </mxCell>
        <mxCell id="UuTfoSx2M2-8d4bxBSYn-61" value="RelayService(if User offline)" style="rounded=0;whiteSpace=wrap;html=1;" vertex="1" parent="1">
          <mxGeometry x="-50" y="1022" width="120" height="60" as="geometry" />
        </mxCell>
        <mxCell id="UuTfoSx2M2-8d4bxBSYn-62" style="edgeStyle=orthogonalEdgeStyle;rounded=0;orthogonalLoop=1;jettySize=auto;html=1;exitX=0.75;exitY=1;exitDx=0;exitDy=0;entryX=0.425;entryY=0.017;entryDx=0;entryDy=0;entryPerimeter=0;" edge="1" parent="1" source="UuTfoSx2M2-8d4bxBSYn-44" target="UuTfoSx2M2-8d4bxBSYn-61">
          <mxGeometry relative="1" as="geometry" />
        </mxCell>
        <mxCell id="UuTfoSx2M2-8d4bxBSYn-63" style="edgeStyle=orthogonalEdgeStyle;rounded=0;orthogonalLoop=1;jettySize=auto;html=1;exitX=1;exitY=0.5;exitDx=0;exitDy=0;entryX=0.167;entryY=0.625;entryDx=0;entryDy=0;entryPerimeter=0;" edge="1" parent="1" source="UuTfoSx2M2-8d4bxBSYn-61" target="UuTfoSx2M2-8d4bxBSYn-52">
          <mxGeometry relative="1" as="geometry" />
        </mxCell>
        <mxCell id="UuTfoSx2M2-8d4bxBSYn-64" value="UnsendMessage" style="text;html=1;align=center;verticalAlign=middle;resizable=0;points=[];autosize=1;strokeColor=none;fillColor=none;" vertex="1" parent="1">
          <mxGeometry x="100" y="1022" width="110" height="30" as="geometry" />
        </mxCell>
        <mxCell id="UuTfoSx2M2-8d4bxBSYn-65" value="LastSeenService" style="rounded=0;whiteSpace=wrap;html=1;" vertex="1" parent="1">
          <mxGeometry x="80" y="670" width="120" height="60" as="geometry" />
        </mxCell>
        <mxCell id="UuTfoSx2M2-8d4bxBSYn-68" value="" style="endArrow=classic;html=1;rounded=0;exitX=0.5;exitY=1;exitDx=0;exitDy=0;" edge="1" parent="1" source="UuTfoSx2M2-8d4bxBSYn-65" target="UuTfoSx2M2-8d4bxBSYn-52">
          <mxGeometry width="50" height="50" relative="1" as="geometry">
            <mxPoint x="630" y="812" as="sourcePoint" />
            <mxPoint x="680" y="762" as="targetPoint" />
          </mxGeometry>
        </mxCell>
        <mxCell id="UuTfoSx2M2-8d4bxBSYn-69" value="UserTimstamp" style="edgeLabel;html=1;align=center;verticalAlign=middle;resizable=0;points=[];" vertex="1" connectable="0" parent="UuTfoSx2M2-8d4bxBSYn-68">
          <mxGeometry x="-0.4991" relative="1" as="geometry">
            <mxPoint as="offset" />
          </mxGeometry>
        </mxCell>
        <mxCell id="UuTfoSx2M2-8d4bxBSYn-71" value="" style="endArrow=none;dashed=1;html=1;rounded=0;exitX=0;exitY=0.5;exitDx=0;exitDy=0;" edge="1" parent="1" source="UuTfoSx2M2-8d4bxBSYn-65" target="UuTfoSx2M2-8d4bxBSYn-45">
          <mxGeometry width="50" height="50" relative="1" as="geometry">
            <mxPoint x="630" y="812" as="sourcePoint" />
            <mxPoint x="680" y="762" as="targetPoint" />
          </mxGeometry>
        </mxCell>
        <mxCell id="UuTfoSx2M2-8d4bxBSYn-72" value="" style="endArrow=none;dashed=1;html=1;rounded=0;exitX=0;exitY=0.5;exitDx=0;exitDy=0;" edge="1" parent="1" source="UuTfoSx2M2-8d4bxBSYn-65" target="UuTfoSx2M2-8d4bxBSYn-46">
          <mxGeometry width="50" height="50" relative="1" as="geometry">
            <mxPoint x="630" y="812" as="sourcePoint" />
            <mxPoint x="680" y="762" as="targetPoint" />
          </mxGeometry>
        </mxCell>
        <mxCell id="UuTfoSx2M2-8d4bxBSYn-73" value="Asset Service" style="rounded=0;whiteSpace=wrap;html=1;" vertex="1" parent="1">
          <mxGeometry x="680" y="812" width="120" height="60" as="geometry" />
        </mxCell>
        <mxCell id="UuTfoSx2M2-8d4bxBSYn-75" style="edgeStyle=orthogonalEdgeStyle;rounded=0;orthogonalLoop=1;jettySize=auto;html=1;" edge="1" parent="1" source="UuTfoSx2M2-8d4bxBSYn-74" target="UuTfoSx2M2-8d4bxBSYn-73">
          <mxGeometry relative="1" as="geometry" />
        </mxCell>
        <mxCell id="UuTfoSx2M2-8d4bxBSYn-74" value="Mobile App, Brower" style="rounded=0;whiteSpace=wrap;html=1;" vertex="1" parent="1">
          <mxGeometry x="440" y="812" width="120" height="60" as="geometry" />
        </mxCell>
        <mxCell id="UuTfoSx2M2-8d4bxBSYn-76" value="store" style="text;html=1;align=center;verticalAlign=middle;resizable=0;points=[];autosize=1;strokeColor=none;fillColor=none;" vertex="1" parent="1">
          <mxGeometry x="585" y="818" width="50" height="30" as="geometry" />
        </mxCell>
        <mxCell id="UuTfoSx2M2-8d4bxBSYn-78" value="" style="endArrow=classic;html=1;rounded=0;exitX=0;exitY=1;exitDx=0;exitDy=0;" edge="1" parent="1" source="UuTfoSx2M2-8d4bxBSYn-73" target="UuTfoSx2M2-8d4bxBSYn-52">
          <mxGeometry width="50" height="50" relative="1" as="geometry">
            <mxPoint x="670" y="820" as="sourcePoint" />
            <mxPoint x="720" y="770" as="targetPoint" />
          </mxGeometry>
        </mxCell>
        <mxCell id="UuTfoSx2M2-8d4bxBSYn-80" value="Group Service" style="rounded=0;whiteSpace=wrap;html=1;" vertex="1" parent="1">
          <mxGeometry x="-580" y="812" width="120" height="60" as="geometry" />
        </mxCell>
        <mxCell id="UuTfoSx2M2-8d4bxBSYn-81" value="" style="endArrow=classic;html=1;rounded=0;entryX=1;entryY=0.25;entryDx=0;entryDy=0;" edge="1" parent="1" source="UuTfoSx2M2-8d4bxBSYn-45" target="UuTfoSx2M2-8d4bxBSYn-80">
          <mxGeometry width="50" height="50" relative="1" as="geometry">
            <mxPoint x="210" y="820" as="sourcePoint" />
            <mxPoint x="260" y="770" as="targetPoint" />
          </mxGeometry>
        </mxCell>
        <mxCell id="UuTfoSx2M2-8d4bxBSYn-82" value="Message" style="edgeLabel;html=1;align=center;verticalAlign=middle;resizable=0;points=[];" vertex="1" connectable="0" parent="UuTfoSx2M2-8d4bxBSYn-81">
          <mxGeometry x="0.1147" y="-2" relative="1" as="geometry">
            <mxPoint as="offset" />
          </mxGeometry>
        </mxCell>
        <mxCell id="UuTfoSx2M2-8d4bxBSYn-83" value="User 1" style="shape=umlActor;verticalLabelPosition=bottom;verticalAlign=top;html=1;outlineConnect=0;" vertex="1" parent="1">
          <mxGeometry x="-700" y="690" width="30" height="60" as="geometry" />
        </mxCell>
        <mxCell id="UuTfoSx2M2-8d4bxBSYn-84" value="User 2" style="shape=umlActor;verticalLabelPosition=bottom;verticalAlign=top;html=1;outlineConnect=0;" vertex="1" parent="1">
          <mxGeometry x="-700" y="812" width="30" height="60" as="geometry" />
        </mxCell>
        <mxCell id="UuTfoSx2M2-8d4bxBSYn-87" value="User 3" style="shape=umlActor;verticalLabelPosition=bottom;verticalAlign=top;html=1;outlineConnect=0;" vertex="1" parent="1">
          <mxGeometry x="-700" y="930" width="30" height="60" as="geometry" />
        </mxCell>
        <mxCell id="UuTfoSx2M2-8d4bxBSYn-88" value="" style="endArrow=classic;html=1;rounded=0;exitX=0;exitY=0.5;exitDx=0;exitDy=0;entryX=0.5;entryY=0.5;entryDx=0;entryDy=0;entryPerimeter=0;" edge="1" parent="1" source="UuTfoSx2M2-8d4bxBSYn-80" target="UuTfoSx2M2-8d4bxBSYn-83">
          <mxGeometry width="50" height="50" relative="1" as="geometry">
            <mxPoint x="210" y="820" as="sourcePoint" />
            <mxPoint x="260" y="770" as="targetPoint" />
          </mxGeometry>
        </mxCell>
        <mxCell id="UuTfoSx2M2-8d4bxBSYn-89" value="" style="endArrow=classic;html=1;rounded=0;exitX=0;exitY=0.5;exitDx=0;exitDy=0;" edge="1" parent="1" source="UuTfoSx2M2-8d4bxBSYn-80" target="UuTfoSx2M2-8d4bxBSYn-84">
          <mxGeometry width="50" height="50" relative="1" as="geometry">
            <mxPoint x="-570" y="852" as="sourcePoint" />
            <mxPoint x="-675" y="730" as="targetPoint" />
          </mxGeometry>
        </mxCell>
        <mxCell id="UuTfoSx2M2-8d4bxBSYn-90" value="" style="endArrow=classic;html=1;rounded=0;exitX=0;exitY=0.5;exitDx=0;exitDy=0;entryX=1;entryY=0.3333333333333333;entryDx=0;entryDy=0;entryPerimeter=0;" edge="1" parent="1" source="UuTfoSx2M2-8d4bxBSYn-80" target="UuTfoSx2M2-8d4bxBSYn-87">
          <mxGeometry width="50" height="50" relative="1" as="geometry">
            <mxPoint x="-560" y="862" as="sourcePoint" />
            <mxPoint x="-665" y="740" as="targetPoint" />
          </mxGeometry>
        </mxCell>
        <mxCell id="UuTfoSx2M2-8d4bxBSYn-91" value="" style="endArrow=none;html=1;rounded=0;" edge="1" parent="1">
          <mxGeometry width="50" height="50" relative="1" as="geometry">
            <mxPoint x="-740" y="670" as="sourcePoint" />
            <mxPoint x="-620" y="670" as="targetPoint" />
          </mxGeometry>
        </mxCell>
        <mxCell id="UuTfoSx2M2-8d4bxBSYn-92" value="" style="endArrow=none;html=1;rounded=0;" edge="1" parent="1">
          <mxGeometry width="50" height="50" relative="1" as="geometry">
            <mxPoint x="-740" y="670" as="sourcePoint" />
            <mxPoint x="-740" y="1020" as="targetPoint" />
          </mxGeometry>
        </mxCell>
        <mxCell id="UuTfoSx2M2-8d4bxBSYn-93" value="" style="endArrow=none;html=1;rounded=0;" edge="1" parent="1">
          <mxGeometry width="50" height="50" relative="1" as="geometry">
            <mxPoint x="-620" y="1020" as="sourcePoint" />
            <mxPoint x="-620" y="670" as="targetPoint" />
          </mxGeometry>
        </mxCell>
        <mxCell id="UuTfoSx2M2-8d4bxBSYn-94" value="" style="endArrow=none;html=1;rounded=0;" edge="1" parent="1">
          <mxGeometry width="50" height="50" relative="1" as="geometry">
            <mxPoint x="-740" y="1020" as="sourcePoint" />
            <mxPoint x="-620" y="1020" as="targetPoint" />
          </mxGeometry>
        </mxCell>
        <mxCell id="UuTfoSx2M2-8d4bxBSYn-96" value="" style="endArrow=none;html=1;rounded=0;" edge="1" parent="1">
          <mxGeometry width="50" height="50" relative="1" as="geometry">
            <mxPoint x="-680" y="670" as="sourcePoint" />
            <mxPoint x="-680" y="600" as="targetPoint" />
          </mxGeometry>
        </mxCell>
        <mxCell id="UuTfoSx2M2-8d4bxBSYn-97" value="" style="endArrow=none;html=1;rounded=0;" edge="1" parent="1">
          <mxGeometry width="50" height="50" relative="1" as="geometry">
            <mxPoint x="140" y="600" as="sourcePoint" />
            <mxPoint x="-680" y="600" as="targetPoint" />
          </mxGeometry>
        </mxCell>
        <mxCell id="UuTfoSx2M2-8d4bxBSYn-99" value="CheckingOnline/Oflline" style="edgeLabel;html=1;align=center;verticalAlign=middle;resizable=0;points=[];" vertex="1" connectable="0" parent="UuTfoSx2M2-8d4bxBSYn-97">
          <mxGeometry x="0.0756" y="2" relative="1" as="geometry">
            <mxPoint as="offset" />
          </mxGeometry>
        </mxCell>
        <mxCell id="UuTfoSx2M2-8d4bxBSYn-98" value="" style="endArrow=classic;html=1;rounded=0;" edge="1" parent="1" target="UuTfoSx2M2-8d4bxBSYn-65">
          <mxGeometry width="50" height="50" relative="1" as="geometry">
            <mxPoint x="140" y="600" as="sourcePoint" />
            <mxPoint x="260" y="820" as="targetPoint" />
          </mxGeometry>
        </mxCell>
        <mxCell id="UuTfoSx2M2-8d4bxBSYn-102" value="Socical Service" style="shape=table;startSize=30;container=1;collapsible=1;childLayout=tableLayout;fixedRows=1;rowLines=0;fontStyle=1;align=center;resizeLast=1;" vertex="1" parent="1">
          <mxGeometry x="1410" y="140" width="250" height="130" as="geometry" />
        </mxCell>
        <mxCell id="UuTfoSx2M2-8d4bxBSYn-103" value="" style="shape=partialRectangle;collapsible=0;dropTarget=0;pointerEvents=0;fillColor=none;points=[[0,0.5],[1,0.5]];portConstraint=eastwest;top=0;left=0;right=0;bottom=1;" vertex="1" parent="UuTfoSx2M2-8d4bxBSYn-102">
          <mxGeometry y="30" width="250" height="30" as="geometry" />
        </mxCell>
        <mxCell id="UuTfoSx2M2-8d4bxBSYn-104" value="" style="shape=partialRectangle;overflow=hidden;connectable=0;fillColor=none;top=0;left=0;bottom=0;right=0;fontStyle=1;" vertex="1" parent="UuTfoSx2M2-8d4bxBSYn-103">
          <mxGeometry width="30" height="30" as="geometry">
            <mxRectangle width="30" height="30" as="alternateBounds" />
          </mxGeometry>
        </mxCell>
        <mxCell id="UuTfoSx2M2-8d4bxBSYn-105" value="" style="shape=partialRectangle;overflow=hidden;connectable=0;fillColor=none;top=0;left=0;bottom=0;right=0;align=left;spacingLeft=6;fontStyle=5;" vertex="1" parent="UuTfoSx2M2-8d4bxBSYn-103">
          <mxGeometry x="30" width="220" height="30" as="geometry">
            <mxRectangle width="220" height="30" as="alternateBounds" />
          </mxGeometry>
        </mxCell>
        <mxCell id="UuTfoSx2M2-8d4bxBSYn-106" value="" style="shape=partialRectangle;collapsible=0;dropTarget=0;pointerEvents=0;fillColor=none;points=[[0,0.5],[1,0.5]];portConstraint=eastwest;top=0;left=0;right=0;bottom=0;" vertex="1" parent="UuTfoSx2M2-8d4bxBSYn-102">
          <mxGeometry y="60" width="250" height="30" as="geometry" />
        </mxCell>
        <mxCell id="UuTfoSx2M2-8d4bxBSYn-107" value="" style="shape=partialRectangle;overflow=hidden;connectable=0;fillColor=none;top=0;left=0;bottom=0;right=0;" vertex="1" parent="UuTfoSx2M2-8d4bxBSYn-106">
          <mxGeometry width="30" height="30" as="geometry">
            <mxRectangle width="30" height="30" as="alternateBounds" />
          </mxGeometry>
        </mxCell>
        <mxCell id="UuTfoSx2M2-8d4bxBSYn-108" value="" style="shape=partialRectangle;overflow=hidden;connectable=0;fillColor=none;top=0;left=0;bottom=0;right=0;align=left;spacingLeft=6;" vertex="1" parent="UuTfoSx2M2-8d4bxBSYn-106">
          <mxGeometry x="30" width="220" height="30" as="geometry">
            <mxRectangle width="220" height="30" as="alternateBounds" />
          </mxGeometry>
        </mxCell>
        <mxCell id="UuTfoSx2M2-8d4bxBSYn-109" value="" style="shape=partialRectangle;collapsible=0;dropTarget=0;pointerEvents=0;fillColor=none;points=[[0,0.5],[1,0.5]];portConstraint=eastwest;top=0;left=0;right=0;bottom=0;" vertex="1" parent="UuTfoSx2M2-8d4bxBSYn-102">
          <mxGeometry y="90" width="250" height="30" as="geometry" />
        </mxCell>
        <mxCell id="UuTfoSx2M2-8d4bxBSYn-110" value="" style="shape=partialRectangle;overflow=hidden;connectable=0;fillColor=none;top=0;left=0;bottom=0;right=0;" vertex="1" parent="UuTfoSx2M2-8d4bxBSYn-109">
          <mxGeometry width="30" height="30" as="geometry">
            <mxRectangle width="30" height="30" as="alternateBounds" />
          </mxGeometry>
        </mxCell>
        <mxCell id="UuTfoSx2M2-8d4bxBSYn-111" value="" style="shape=partialRectangle;overflow=hidden;connectable=0;fillColor=none;top=0;left=0;bottom=0;right=0;align=left;spacingLeft=6;" vertex="1" parent="UuTfoSx2M2-8d4bxBSYn-109">
          <mxGeometry x="30" width="220" height="30" as="geometry">
            <mxRectangle width="220" height="30" as="alternateBounds" />
          </mxGeometry>
        </mxCell>
        <mxCell id="UuTfoSx2M2-8d4bxBSYn-112" value="&lt;font style=&quot;font-size: 22px;&quot;&gt;UI&lt;/font&gt;" style="whiteSpace=wrap;html=1;" vertex="1" parent="1">
          <mxGeometry x="1070" y="715" width="120" height="60" as="geometry" />
        </mxCell>
        <mxCell id="UuTfoSx2M2-8d4bxBSYn-113" value="" style="endArrow=classic;html=1;rounded=0;exitX=1;exitY=0.5;exitDx=0;exitDy=0;" edge="1" parent="1" source="UuTfoSx2M2-8d4bxBSYn-112">
          <mxGeometry width="50" height="50" relative="1" as="geometry">
            <mxPoint x="1330" y="620" as="sourcePoint" />
            <mxPoint x="1280" y="745" as="targetPoint" />
          </mxGeometry>
        </mxCell>
        <mxCell id="UuTfoSx2M2-8d4bxBSYn-115" value="API Gateway" style="rounded=1;whiteSpace=wrap;html=1;" vertex="1" parent="1">
          <mxGeometry x="1280" y="722" width="80" height="45" as="geometry" />
        </mxCell>
        <mxCell id="UuTfoSx2M2-8d4bxBSYn-120" style="edgeStyle=orthogonalEdgeStyle;rounded=0;orthogonalLoop=1;jettySize=auto;html=1;exitX=0.5;exitY=0;exitDx=0;exitDy=0;entryX=0;entryY=0.5;entryDx=0;entryDy=0;" edge="1" parent="1" source="UuTfoSx2M2-8d4bxBSYn-116" target="UuTfoSx2M2-8d4bxBSYn-117">
          <mxGeometry relative="1" as="geometry" />
        </mxCell>
        <mxCell id="UuTfoSx2M2-8d4bxBSYn-116" value="&lt;font style=&quot;font-size: 17px;&quot;&gt;API&lt;/font&gt;" style="rounded=0;whiteSpace=wrap;html=1;direction=south;" vertex="1" parent="1">
          <mxGeometry x="1440" y="684.5" width="60" height="120" as="geometry" />
        </mxCell>
        <mxCell id="UuTfoSx2M2-8d4bxBSYn-141" value="" style="edgeStyle=orthogonalEdgeStyle;rounded=0;orthogonalLoop=1;jettySize=auto;html=1;" edge="1" parent="1" source="UuTfoSx2M2-8d4bxBSYn-117" target="UuTfoSx2M2-8d4bxBSYn-136">
          <mxGeometry relative="1" as="geometry" />
        </mxCell>
        <mxCell id="UuTfoSx2M2-8d4bxBSYn-117" value="&lt;font style=&quot;font-size: 16px;&quot;&gt;Microservice&lt;/font&gt;" style="rounded=0;whiteSpace=wrap;html=1;" vertex="1" parent="1">
          <mxGeometry x="1570" y="703.5" width="170" height="83" as="geometry" />
        </mxCell>
        <mxCell id="UuTfoSx2M2-8d4bxBSYn-121" value="" style="endArrow=none;html=1;rounded=0;" edge="1" parent="1">
          <mxGeometry width="50" height="50" relative="1" as="geometry">
            <mxPoint x="1410" y="860" as="sourcePoint" />
            <mxPoint x="1410" y="670" as="targetPoint" />
          </mxGeometry>
        </mxCell>
        <mxCell id="UuTfoSx2M2-8d4bxBSYn-122" value="" style="endArrow=none;html=1;rounded=0;" edge="1" parent="1">
          <mxGeometry width="50" height="50" relative="1" as="geometry">
            <mxPoint x="1410" y="670" as="sourcePoint" />
            <mxPoint x="1780" y="670" as="targetPoint" />
          </mxGeometry>
        </mxCell>
        <mxCell id="UuTfoSx2M2-8d4bxBSYn-123" value="" style="endArrow=none;html=1;rounded=0;" edge="1" parent="1">
          <mxGeometry width="50" height="50" relative="1" as="geometry">
            <mxPoint x="1410" y="860" as="sourcePoint" />
            <mxPoint x="1780" y="860" as="targetPoint" />
          </mxGeometry>
        </mxCell>
        <mxCell id="UuTfoSx2M2-8d4bxBSYn-124" value="" style="endArrow=none;html=1;rounded=0;" edge="1" parent="1">
          <mxGeometry width="50" height="50" relative="1" as="geometry">
            <mxPoint x="1780" y="670" as="sourcePoint" />
            <mxPoint x="1780" y="860" as="targetPoint" />
          </mxGeometry>
        </mxCell>
        <mxCell id="UuTfoSx2M2-8d4bxBSYn-125" value="MessageGroup" style="rounded=1;whiteSpace=wrap;html=1;" vertex="1" parent="1">
          <mxGeometry x="1600" y="804.5" width="110" height="40" as="geometry" />
        </mxCell>
        <mxCell id="UuTfoSx2M2-8d4bxBSYn-126" value="" style="endArrow=none;html=1;rounded=0;exitX=0.5;exitY=1;exitDx=0;exitDy=0;entryX=0.5;entryY=0;entryDx=0;entryDy=0;" edge="1" parent="1" source="UuTfoSx2M2-8d4bxBSYn-117" target="UuTfoSx2M2-8d4bxBSYn-125">
          <mxGeometry width="50" height="50" relative="1" as="geometry">
            <mxPoint x="1330" y="620" as="sourcePoint" />
            <mxPoint x="1380" y="570" as="targetPoint" />
          </mxGeometry>
        </mxCell>
        <mxCell id="UuTfoSx2M2-8d4bxBSYn-127" value="Database" style="shape=cylinder3;whiteSpace=wrap;html=1;boundedLbl=1;backgroundOutline=1;size=15;" vertex="1" parent="1">
          <mxGeometry x="1950" y="642" width="60" height="80" as="geometry" />
        </mxCell>
        <mxCell id="UuTfoSx2M2-8d4bxBSYn-131" value="" style="endArrow=classic;html=1;rounded=0;exitX=1;exitY=0.5;exitDx=0;exitDy=0;entryX=0;entryY=0.5;entryDx=0;entryDy=0;entryPerimeter=0;" edge="1" parent="1" source="UuTfoSx2M2-8d4bxBSYn-117" target="UuTfoSx2M2-8d4bxBSYn-127">
          <mxGeometry width="50" height="50" relative="1" as="geometry">
            <mxPoint x="1330" y="620" as="sourcePoint" />
            <mxPoint x="1380" y="570" as="targetPoint" />
          </mxGeometry>
        </mxCell>
        <mxCell id="UuTfoSx2M2-8d4bxBSYn-132" value="" style="endArrow=classic;html=1;rounded=0;exitX=1;exitY=0.5;exitDx=0;exitDy=0;" edge="1" parent="1" source="UuTfoSx2M2-8d4bxBSYn-115">
          <mxGeometry width="50" height="50" relative="1" as="geometry">
            <mxPoint x="1330" y="620" as="sourcePoint" />
            <mxPoint x="1410" y="720" as="targetPoint" />
          </mxGeometry>
        </mxCell>
        <mxCell id="UuTfoSx2M2-8d4bxBSYn-133" value="" style="endArrow=classic;html=1;rounded=0;exitX=1;exitY=0.5;exitDx=0;exitDy=0;" edge="1" parent="1" source="UuTfoSx2M2-8d4bxBSYn-115">
          <mxGeometry width="50" height="50" relative="1" as="geometry">
            <mxPoint x="1370" y="755" as="sourcePoint" />
            <mxPoint x="1410" y="745" as="targetPoint" />
          </mxGeometry>
        </mxCell>
        <mxCell id="UuTfoSx2M2-8d4bxBSYn-134" value="" style="endArrow=classic;html=1;rounded=0;exitX=1;exitY=0.5;exitDx=0;exitDy=0;" edge="1" parent="1" source="UuTfoSx2M2-8d4bxBSYn-115">
          <mxGeometry width="50" height="50" relative="1" as="geometry">
            <mxPoint x="1360" y="740" as="sourcePoint" />
            <mxPoint x="1410" y="780" as="targetPoint" />
          </mxGeometry>
        </mxCell>
        <mxCell id="UuTfoSx2M2-8d4bxBSYn-135" value="Image,Feed" style="rounded=0;whiteSpace=wrap;html=1;" vertex="1" parent="1">
          <mxGeometry x="1440" y="570" width="120" height="60" as="geometry" />
        </mxCell>
        <mxCell id="UuTfoSx2M2-8d4bxBSYn-136" value="Like,Comment" style="rounded=0;whiteSpace=wrap;html=1;" vertex="1" parent="1">
          <mxGeometry x="1595" y="570" width="120" height="60" as="geometry" />
        </mxCell>
        <mxCell id="UuTfoSx2M2-8d4bxBSYn-137" value="Profile" style="rounded=0;whiteSpace=wrap;html=1;" vertex="1" parent="1">
          <mxGeometry x="1760" y="570" width="120" height="60" as="geometry" />
        </mxCell>
        <mxCell id="UuTfoSx2M2-8d4bxBSYn-138" value="" style="endArrow=classic;html=1;rounded=0;exitX=0.5;exitY=0;exitDx=0;exitDy=0;entryX=0.5;entryY=1;entryDx=0;entryDy=0;" edge="1" parent="1" source="UuTfoSx2M2-8d4bxBSYn-117" target="UuTfoSx2M2-8d4bxBSYn-135">
          <mxGeometry width="50" height="50" relative="1" as="geometry">
            <mxPoint x="1330" y="620" as="sourcePoint" />
            <mxPoint x="1380" y="570" as="targetPoint" />
          </mxGeometry>
        </mxCell>
        <mxCell id="UuTfoSx2M2-8d4bxBSYn-139" value="" style="endArrow=classic;html=1;rounded=0;entryX=0.5;entryY=1;entryDx=0;entryDy=0;" edge="1" parent="1" target="UuTfoSx2M2-8d4bxBSYn-136">
          <mxGeometry width="50" height="50" relative="1" as="geometry">
            <mxPoint x="1655" y="700" as="sourcePoint" />
            <mxPoint x="1510" y="640" as="targetPoint" />
          </mxGeometry>
        </mxCell>
        <mxCell id="UuTfoSx2M2-8d4bxBSYn-140" value="" style="endArrow=classic;html=1;rounded=0;exitX=0.5;exitY=0;exitDx=0;exitDy=0;entryX=0.5;entryY=1;entryDx=0;entryDy=0;" edge="1" parent="1" source="UuTfoSx2M2-8d4bxBSYn-117" target="UuTfoSx2M2-8d4bxBSYn-137">
          <mxGeometry width="50" height="50" relative="1" as="geometry">
            <mxPoint x="1662" y="724" as="sourcePoint" />
            <mxPoint x="1520" y="650" as="targetPoint" />
          </mxGeometry>
        </mxCell>
      </root>
    </mxGraphModel>
  </diagram>
</mxfile>
